<svg id="a1c57df8-3ed6-4600-a7bd-a026eb6cc88d" data-name="Ebene 2" xmlns="http://www.w3.org/2000/svg" viewBox="0 0 200 88"><defs><style>.bbb82ba2-1bf4-4912-a896-c15618d8d730{fill:#025682;}.facf58a3-66ca-41a5-8ee6-d8704f10e043{fill:#0f9c9f;}.a9bbdb84-e3d8-4df3-91a6-db54786f6fd4{fill:#08a2a5;}</style></defs><path class="bbb82ba2-1bf4-4912-a896-c15618d8d730" d="M61.5844,65.6757c-1.031,0-1.8448-.0541-2.6587-.0541V55.2432c.8139,0,1.9533-.054,3.0927-.054,3.31,0,5.3175,1.5676,5.3175,5.1351C67.39,63.8378,65.0027,65.6757,61.5844,65.6757Zm.3255-9.3514c-.5426,0-1.1937.0541-1.5735.0541v8a11.477,11.477,0,0,0,1.3565.1081c2.4417,0,4.178-1.2433,4.178-4.0541C65.8709,57.73,64.6229,56.3243,61.91,56.3243Z"/><path class="bbb82ba2-1bf4-4912-a896-c15618d8d730" d="M74.9322,61.73H69.94c-.0542,2,.8139,2.8649,2.4417,2.8649a4.9109,4.9109,0,0,0,2.17-.4865l.217,1.0811a6.8553,6.8553,0,0,1-2.6587.4865c-2.3332,0-3.5811-1.2433-3.5811-3.946,0-2.27,1.2479-4,3.4183-4a2.8964,2.8964,0,0,1,3.0928,3.1892A2.2328,2.2328,0,0,0,74.9322,61.73Zm-3.0928-2.8648A2.0011,2.0011,0,0,0,69.94,60.8108h3.5811A1.6506,1.6506,0,0,0,71.8394,58.8649Z"/><path class="bbb82ba2-1bf4-4912-a896-c15618d8d730" d="M81.6061,65.6216c0-.4865.0542-1.1351.1085-1.6216H81.66a2.8353,2.8353,0,0,1-2.7129,1.73c-1.7363,0-2.2789-1.0811-2.2789-2.4324V57.9459H78.025v4.919c0,1.081.3255,1.73,1.3022,1.73,1.2479,0,2.17-1.2973,2.17-2.973V57.9459H82.854v7.6217H81.6061Z"/><path class="bbb82ba2-1bf4-4912-a896-c15618d8d730" d="M87.6831,65.73c-1.5735,0-2.0618-.6486-2.0618-2.27V59.0811H84.0478V58h1.5735V55.5135l1.4107-.3784V58h2.17v1.0811h-2.17V62.973c0,1.2432.2171,1.6216,1.0852,1.6216a4.8888,4.8888,0,0,0,.9767-.1081l.1628,1.1351A15.3752,15.3752,0,0,1,87.6831,65.73Z"/><path class="bbb82ba2-1bf4-4912-a896-c15618d8d730" d="M92.0239,65.73a5.5124,5.5124,0,0,1-1.6821-.2162L90.45,64.27a4.4362,4.4362,0,0,0,1.682.3243c.9767,0,1.682-.4324,1.682-1.1892,0-1.73-3.5811-.6486-3.5811-3.3514,0-1.2972,1.0309-2.27,3.0385-2.27a6.4028,6.4028,0,0,1,1.465.1621l-.1085,1.1352a4.4881,4.4881,0,0,0-1.5192-.2162c-1.031,0-1.5193.4324-1.5193,1.081,0,1.6757,3.5811.7027,3.5811,3.2973C95.2794,64.7027,94.0315,65.73,92.0239,65.73Z"/><path class="bbb82ba2-1bf4-4912-a896-c15618d8d730" d="M99.783,65.73c-1.8448,0-3.3641-.8648-3.3641-3.6757,0-2.4864,1.248-4.2162,3.7439-4.2162a5.1753,5.1753,0,0,1,1.8991.3244l-.2713,1.1891a4.3176,4.3176,0,0,0-1.7363-.3783c-1.4108,0-2.17,1.1892-2.17,2.8648,0,1.5135.4883,2.6487,2.17,2.6487a3.9434,3.9434,0,0,0,1.7905-.3784l.2171,1.1351A5.3884,5.3884,0,0,1,99.783,65.73Z"/><path class="bbb82ba2-1bf4-4912-a896-c15618d8d730" d="M108.41,65.6216V60.7027c0-1.0811-.2713-1.73-1.3022-1.73-1.248,0-2.17,1.2973-2.17,2.9729v3.6757h-1.4107V54.3784h1.4107V58a6.4749,6.4749,0,0,1-.1628,1.5135h.0543a2.8132,2.8132,0,0,1,2.6587-1.73,2.1379,2.1379,0,0,1,2.3331,2.4324v5.3514H108.41Z"/><path class="bbb82ba2-1bf4-4912-a896-c15618d8d730" d="M117.96,61.73H112.968c-.0543,2,.8139,2.8649,2.4417,2.8649a4.91,4.91,0,0,0,2.17-.4865l.2171,1.0811a6.856,6.856,0,0,1-2.6587.4865c-2.3332,0-3.5812-1.2433-3.5812-3.946,0-2.27,1.248-4,3.4184-4a2.8964,2.8964,0,0,1,3.0928,3.1892A2.2328,2.2328,0,0,0,117.96,61.73Zm-3.0928-2.8648a2.0011,2.0011,0,0,0-1.8991,1.9459h3.5811A1.6506,1.6506,0,0,0,114.8671,58.8649Z"/><path class="bbb82ba2-1bf4-4912-a896-c15618d8d730" d="M127.3467,65.73c-3.147,0-5.1546-1.8919-5.1546-5.1351a5.2441,5.2441,0,0,1,5.5887-5.5135,9.7155,9.7155,0,0,1,2.8757.4324l-.3255,1.2973a7.5463,7.5463,0,0,0-2.713-.4865,3.811,3.811,0,0,0-3.9609,4.1622c0,2.5946,1.5193,4.054,3.8524,4.054a6.3137,6.3137,0,0,0,1.8448-.27v-3.946h1.4108v4.8108A10.0859,10.0859,0,0,1,127.3467,65.73Z"/><path class="bbb82ba2-1bf4-4912-a896-c15618d8d730" d="M138.904,61.73h-4.9919c-.0543,2,.8139,2.8649,2.4417,2.8649a4.9112,4.9112,0,0,0,2.17-.4865l.217,1.0811a6.8553,6.8553,0,0,1-2.6587.4865c-2.3332,0-3.5811-1.2433-3.5811-3.946,0-2.27,1.2479-4,3.4183-4a2.8964,2.8964,0,0,1,3.0928,3.1892A4.776,4.776,0,0,0,138.904,61.73Zm-3.0928-2.8648a2.0011,2.0011,0,0,0-1.8991,1.9459h3.5811A1.6506,1.6506,0,0,0,135.8112,58.8649Z"/><path class="bbb82ba2-1bf4-4912-a896-c15618d8d730" d="M141.9425,65.73a5.5113,5.5113,0,0,1-1.682-.2162l.1085-1.2432a4.4362,4.4362,0,0,0,1.682.3243c.9767,0,1.6821-.4324,1.6821-1.1892,0-1.73-3.5812-.6486-3.5812-3.3514,0-1.2972,1.031-2.27,3.0386-2.27a6.404,6.404,0,0,1,1.465.1621l-.1085,1.1352a4.4891,4.4891,0,0,0-1.5193-.2162c-1.0309,0-1.5193.4324-1.5193,1.081,0,1.6757,3.5812.7027,3.5812,3.2973C145.1981,64.7027,143.95,65.73,141.9425,65.73Z"/><path class="bbb82ba2-1bf4-4912-a896-c15618d8d730" d="M152.74,61.73h-4.9919c-.0542,2,.8139,2.8649,2.4417,2.8649a4.9109,4.9109,0,0,0,2.17-.4865l.217,1.0811a6.8553,6.8553,0,0,1-2.6587.4865c-2.3331,0-3.5811-1.2433-3.5811-3.946,0-2.27,1.248-4,3.4183-4a2.8964,2.8964,0,0,1,3.0928,3.1892C152.7944,61.2432,152.7944,61.46,152.74,61.73Zm-3.0385-2.8648a2.0011,2.0011,0,0,0-1.8991,1.9459h3.5811A1.6764,1.6764,0,0,0,149.7016,58.8649Z"/><path class="bbb82ba2-1bf4-4912-a896-c15618d8d730" d="M154.5849,65.6216V54.3784h1.4108V65.6216Z"/><path class="bbb82ba2-1bf4-4912-a896-c15618d8d730" d="M158.3288,65.6216V54.3784H159.74V65.6216Z"/><path class="bbb82ba2-1bf4-4912-a896-c15618d8d730" d="M163.3207,65.73a5.5124,5.5124,0,0,1-1.6821-.2162l.1086-1.2432a4.4362,4.4362,0,0,0,1.682.3243c.9767,0,1.6821-.4324,1.6821-1.1892,0-1.73-3.5812-.6486-3.5812-3.3514,0-1.2972,1.031-2.27,3.0386-2.27a6.404,6.404,0,0,1,1.465.1621l-.1086,1.1352a4.4881,4.4881,0,0,0-1.5192-.2162c-1.0309,0-1.5193.4324-1.5193,1.081,0,1.6757,3.5812.7027,3.5812,3.2973C166.5762,64.7027,165.3283,65.73,163.3207,65.73Z"/><path class="bbb82ba2-1bf4-4912-a896-c15618d8d730" d="M171.08,65.73c-1.8448,0-3.3641-.8648-3.3641-3.6757,0-2.4864,1.2479-4.2162,3.7439-4.2162a5.1747,5.1747,0,0,1,1.899.3244l-.2712,1.1891a4.3177,4.3177,0,0,0-1.7364-.3783c-1.4107,0-2.17,1.1892-2.17,2.8648,0,1.5135.4883,2.6487,2.17,2.6487a3.9435,3.9435,0,0,0,1.7906-.3784l.217,1.1351A5.3876,5.3876,0,0,1,171.08,65.73Z"/><path class="bbb82ba2-1bf4-4912-a896-c15618d8d730" d="M179.707,65.6216V60.7027c0-1.0811-.2713-1.73-1.3022-1.73-1.248,0-2.17,1.2973-2.17,2.9729v3.6757h-1.4107V54.3784h1.4107V58a6.4749,6.4749,0,0,1-.1628,1.5135h.0543a2.8132,2.8132,0,0,1,2.6587-1.73,2.1379,2.1379,0,0,1,2.3331,2.4324v5.3514H179.707Z"/><path class="bbb82ba2-1bf4-4912-a896-c15618d8d730" d="M187.52,65.6216a13.1486,13.1486,0,0,1,.0542-1.5135H187.52a2.7993,2.7993,0,0,1-2.6045,1.6757A1.9762,1.9762,0,0,1,182.8,63.73c0-1.6216,1.6821-2.6486,4.6121-2.6486v-.4865c0-1.0811-.4341-1.6216-1.6821-1.6216a4.5642,4.5642,0,0,0-2.2246.5946l-.2713-1.1352a7.1325,7.1325,0,0,1,2.7129-.5405c2.2247,0,2.8758,1.027,2.8758,2.5405v3.0811c0,.7027,0,1.5135.0542,2.2162H187.52Zm-.0543-3.5676c-2.55,0-3.2556.7028-3.2556,1.4595a1.1373,1.1373,0,0,0,1.1938,1.1892,2.2914,2.2914,0,0,0,2.0618-2.4324Z"/><path class="bbb82ba2-1bf4-4912-a896-c15618d8d730" d="M195.7135,55.5676a4.1451,4.1451,0,0,0-1.1394-.1622c-1.0852,0-1.5736.5946-1.5736,1.9459v.5946h2.1162V59.027h-2.1162v6.5406H191.59V59.027h-1.5735V57.9459H191.59v-.5946c0-2.1081,1.0309-3.081,2.93-3.081a4.6419,4.6419,0,0,1,1.248.1621Z"/><path class="bbb82ba2-1bf4-4912-a896-c15618d8d730" d="M198.4265,65.73c-1.5735,0-2.0619-.6486-2.0619-2.27V59.0811h-1.5735V58h1.5735V55.5135l1.4108-.3784V58h2.17v1.0811h-2.17V62.973c0,1.2432.217,1.6216,1.0852,1.6216a4.8877,4.8877,0,0,0,.9766-.1081L200,65.6216A15.3733,15.3733,0,0,1,198.4265,65.73Z"/><path class="bbb82ba2-1bf4-4912-a896-c15618d8d730" d="M63.3749,74.054a4.145,4.145,0,0,0-1.1394-.1621c-1.0852,0-1.5735.5946-1.5735,1.9459v.5946h2.1161v1.0811H60.662v6.5406H59.2512V77.5135H57.6777V76.4324h1.5735v-.5946c0-2.1081,1.031-3.081,2.93-3.081a4.6419,4.6419,0,0,1,1.248.1621Z"/><path class="bbb82ba2-1bf4-4912-a896-c15618d8d730" d="M68.9636,84.054c0-.4864.0543-1.1351.1086-1.6216h-.0543a2.8355,2.8355,0,0,1-2.713,1.73c-1.7363,0-2.2789-1.0811-2.2789-2.4325V76.3784h1.3565v4.9189c0,1.0811.3256,1.73,1.3023,1.73,1.2479,0,2.17-1.2973,2.17-2.973V76.3784h1.3565V84h-1.248Zm-3.31-9.2432A.8108.8108,0,1,1,66.4677,74,.7976.7976,0,0,1,65.6538,74.8108Zm2.93,0A.8108.8108,0,1,1,69.3977,74,.7674.7674,0,0,1,68.5838,74.8108Z"/><path class="bbb82ba2-1bf4-4912-a896-c15618d8d730" d="M76.4514,77.6757c-1.6277-.27-2.3874.9189-2.3874,3.3513v3.0811H72.6533V76.4865H74.01a12.0594,12.0594,0,0,1-.1628,1.8378h.0543A2.4,2.4,0,0,1,76.56,76.3784Z"/><path class="bbb82ba2-1bf4-4912-a896-c15618d8d730" d="M83.2339,80.1081a4.1187,4.1187,0,0,1-.8139-.0541V84H81.0092V73.6216c.76-.054,1.6278-.054,2.55-.054,2.3874,0,3.7439,1.1891,3.7439,3.027C87.3033,78.7027,85.6213,80.1081,83.2339,80.1081Zm.1627-5.2973H82.42v4.1081a4.3982,4.3982,0,0,0,.8681.0541c1.5193,0,2.55-.8649,2.55-2.1622C85.7841,75.5135,85.0244,74.8108,83.3966,74.8108Z"/><path class="bbb82ba2-1bf4-4912-a896-c15618d8d730" d="M89.9078,84.2162A5.5124,5.5124,0,0,1,88.2257,84l.1085-1.2432a4.437,4.437,0,0,0,1.6821.3243c.9767,0,1.682-.4325,1.682-1.1892,0-1.73-3.5811-.6487-3.5811-3.3514,0-1.2973,1.0309-2.27,3.0385-2.27a6.4028,6.4028,0,0,1,1.465.1621l-.1085,1.1352a4.4888,4.4888,0,0,0-1.5192-.2162c-1.031,0-1.5193.4324-1.5193,1.081,0,1.6757,3.5811.7027,3.5811,3.2973C93.1633,83.1892,91.9154,84.2162,89.9078,84.2162Z"/><path class="bbb82ba2-1bf4-4912-a896-c15618d8d730" d="M97.7211,84.7027C96.7987,87.1892,95.822,88,94.0857,88a4.2351,4.2351,0,0,1-.8681-.1081l.1628-1.2433a5.3608,5.3608,0,0,0,.9224.1082c.8139,0,1.465-.3784,2.0076-1.8919l.3255-.8108L93.76,76.4324h1.5735l1.465,3.946a18.4554,18.4554,0,0,1,.5969,1.8919H97.45c.1628-.5406.4883-1.5135.76-2.3784l1.248-3.5135h1.5193Z"/><path class="bbb82ba2-1bf4-4912-a896-c15618d8d730" d="M104.5035,84.2162c-1.8448,0-3.364-.8649-3.364-3.6757,0-2.4865,1.2479-4.2162,3.7438-4.2162a5.1774,5.1774,0,0,1,1.8991.3243l-.2713,1.1892a4.3172,4.3172,0,0,0-1.7363-.3783c-1.4107,0-2.17,1.1891-2.17,2.8648,0,1.5135.4883,2.6487,2.17,2.6487a3.9438,3.9438,0,0,0,1.7906-.3784l.217,1.1351A5.3892,5.3892,0,0,1,104.5035,84.2162Z"/><path class="bbb82ba2-1bf4-4912-a896-c15618d8d730" d="M113.1308,84.054V79.1351c0-1.0811-.2713-1.73-1.3022-1.73-1.248,0-2.17,1.2973-2.17,2.973V84.054h-1.4108V72.8108h1.4108v3.6216a6.4743,6.4743,0,0,1-.1628,1.5135h.0543a2.8131,2.8131,0,0,1,2.6587-1.73,2.1379,2.1379,0,0,1,2.3331,2.4324V84h-1.4107Z"/><path class="bbb82ba2-1bf4-4912-a896-c15618d8d730" d="M119.5876,84.2162c-2.0618,0-3.4183-1.1892-3.4183-3.8919a3.729,3.729,0,0,1,3.7439-4.054c1.9533,0,3.4726,1.081,3.4726,3.8378A3.818,3.818,0,0,1,119.5876,84.2162Zm.2171-6.7567c-1.0852,0-2.17.8648-2.17,2.7567,0,1.8378.76,2.8649,2.17,2.8649,1.1394,0,2.1161-.9189,2.1161-2.8649C121.9208,78.4324,121.2154,77.46,119.8047,77.46Z"/><path class="bbb82ba2-1bf4-4912-a896-c15618d8d730" d="M125.0136,84.054V72.8108h1.4107V84.054Z"/><path class="bbb82ba2-1bf4-4912-a896-c15618d8d730" d="M131.5247,84.2162c-2.0619,0-3.4183-1.1892-3.4183-3.8919A3.729,3.729,0,0,1,131.85,76.27c1.9534,0,3.4726,1.081,3.4726,3.8378C135.2686,82.4324,133.8036,84.2162,131.5247,84.2162Zm.1628-6.7567c-1.0852,0-2.17.8648-2.17,2.7567,0,1.8378.76,2.8649,2.17,2.8649,1.1394,0,2.1161-.9189,2.1161-2.8649C133.8036,78.4324,133.0982,77.46,131.6875,77.46Z"/><path class="bbb82ba2-1bf4-4912-a896-c15618d8d730" d="M139.4466,88c-1.9534,0-3.2013-.8108-3.2013-2.27a2.4629,2.4629,0,0,1,1.3022-2.054,1.2219,1.2219,0,0,1-.76-1.1352,1.4621,1.4621,0,0,1,.8681-1.2973,2.2821,2.2821,0,0,1-1.1394-2.1081,2.9314,2.9314,0,0,1,3.2555-2.8648,3.5109,3.5109,0,0,1,1.0852.1621h2.6045v1.0811h-1.248a1.7887,1.7887,0,0,1,.5969,1.4054c0,1.5676-1.0852,2.7568-3.2556,2.7568a3.7079,3.7079,0,0,1-.8139-.1081.7308.7308,0,0,0-.4883.6486c0,.4325.38.5406,1.3022.5946l1.4107.0541c1.6278.054,2.6045.8108,2.6045,2.2162C143.516,86.7027,141.8882,88,139.4466,88Zm1.0852-3.946L139.0667,84h-.434a1.9354,1.9354,0,0,0-.9767,1.5135c0,.9189.8682,1.46,2.0619,1.46,1.5735,0,2.4416-.7027,2.4416-1.6217C142.1053,84.5405,141.6169,84.054,140.5318,84.054Zm-.8682-6.7567a1.7083,1.7083,0,0,0-1.8448,1.73,1.5719,1.5719,0,0,0,1.79,1.6757,1.704,1.704,0,1,0,.0543-3.4054Z"/><path class="bbb82ba2-1bf4-4912-a896-c15618d8d730" d="M145.7407,74.9189A.9189.9189,0,1,1,146.6631,74,.949.949,0,0,1,145.7407,74.9189Zm-.7054,9.1351V76.4324h1.4107V84.054Z"/><path class="bbb82ba2-1bf4-4912-a896-c15618d8d730" d="M154.5307,80.2162h-4.9919c-.0543,2,.8139,2.8649,2.4417,2.8649a4.91,4.91,0,0,0,2.17-.4865l.2171,1.0811a6.856,6.856,0,0,1-2.6587.4865c-2.3332,0-3.5812-1.2433-3.5812-3.946,0-2.27,1.248-4,3.4184-4a2.8964,2.8964,0,0,1,3.0928,3.1892C154.5849,79.6757,154.5849,79.8919,154.5307,80.2162Zm-3.0386-2.9189a2.0011,2.0011,0,0,0-1.899,1.9459h3.5811A1.6765,1.6765,0,0,0,151.4921,77.2973Z"/><path class="facf58a3-66ca-41a5-8ee6-d8704f10e043" d="M161.6929,14.973l.1085-4a27.1568,27.1568,0,0,0-5.0461-.5406,15.084,15.084,0,0,0-3.2555.3244,10.8255,10.8255,0,0,1,.0542,1.3513,13.02,13.02,0,0,1-.217,2.54,8.0415,8.0415,0,0,1,3.0385-.54,17.94,17.94,0,0,1,5.3174.8649M163.4292,29.46c0-7.7838-9.55-6.3244-11.8828-9.7838a14.9326,14.9326,0,0,1-3.0928,4c3.5811,2.7567,9.9837,2.054,9.9837,6.3243,0,2.4324-2.3874,4.0541-5.9142,4.0541a19.4961,19.4961,0,0,1-5.8058-.919l-.1628,4.27a29.88,29.88,0,0,0,5.5887.4865c7.0538-.0541,11.286-3.6757,11.286-8.4324"/><path class="bbb82ba2-1bf4-4912-a896-c15618d8d730" d="M121.7037,2.5405A31.9851,31.9851,0,0,0,111.8285.973c-12.1,0-19.4791,8.1621-19.4791,19.1351,0,11.1351,6.9995,17.73,17.9056,17.73a36.0928,36.0928,0,0,0,11.8828-2.054V19.0811h-4.8833V32.6486a20.86,20.86,0,0,1-6.3484.973c-8.1389,0-13.3478-5.0811-13.3478-14.054,0-9.5676,6.3484-14.3784,13.7819-14.3784a26.2018,26.2018,0,0,1,9.6039,1.8919Z"/><path class="facf58a3-66ca-41a5-8ee6-d8704f10e043" d="M143.7873,12.27c0,4.5405-3.4183,7.4054-8.7357,7.4594a16.9711,16.9711,0,0,1-2.93-.2162V5.3514c1.0309-.0541,2.0618-.0541,3.4183-.0541,5.643,0,8.2474,2.4865,8.2474,6.973m5.1547-.4865c0-6.3784-4.6121-10.5406-12.8595-10.5406-3.2556,0-6.1856.1082-8.8443.2163V37.3513h4.9376v-13.73a26.0615,26.0615,0,0,0,2.8758.1081c8.0846,0,13.89-4.9189,13.89-11.9459"/><path class="bbb82ba2-1bf4-4912-a896-c15618d8d730" d="M83.0711,19.3514c0,9.73-5.9143,14.1081-14.3787,14.1081a34.248,34.248,0,0,1-4.7749-.3244V5.46c1.3565-.0541,3.5269-.1622,5.3717-.1622,9.3869,0,13.7819,4.8649,13.7819,14.0541m5.1546-.3244c0-12.3243-6.8909-17.73-18.3939-17.73-3.9609,0-8.03.1622-10.7976.2162V37.3513c2.6587,0,5.48.2163,9.1155.2163,11.8286,0,20.076-6.27,20.076-18.5406"/><path class="a9bbdb84-e3d8-4df3-91a6-db54786f6fd4" d="M19.3163,0a19.227,19.227,0,0,0-1.79,38.3784V10.5946h3.5811V38.3784A19.227,19.227,0,0,0,19.3163,0Zm-4.612,28.6486A15.0965,15.0965,0,0,1,4.1237,14.27a16.236,16.236,0,0,1,.4341-3.6757H8.0846A11.6009,11.6009,0,0,0,7.4878,14.27a11.7463,11.7463,0,0,0,7.2165,10.8108Zm9.17,0V25.0811A11.7156,11.7156,0,0,0,30.44,10.5946h3.4726a13.9119,13.9119,0,0,1,.4341,3.6757A14.8667,14.8667,0,0,1,23.8741,28.6486Z"/></svg>